<svg width="234" height="251" viewBox="0 0 234 251" fill="none" xmlns="http://www.w3.org/2000/svg">
<path d="M233.582 125.133L116.791 250.266L0 125.133L116.791 0L233.582 125.133Z" fill="white"/>
<path d="M215.082 125.632L117.024 230.693L18.966 125.632L117.024 20.5703L215.082 125.632Z" fill="url(#paint0_radial_2002_2)"/>
<path d="M115.294 82.9586C122.026 93.6608 126.036 99.2921 133.761 108.663C133.833 108.319 133.905 107.998 133.981 107.695L139.251 114.402L136.007 103.421L134.382 106.309C134.813 105.026 135.369 103.944 136.256 102.423C142.76 109.374 145.084 113.79 149.982 121.389V117.147C153.208 119.962 154.857 121.701 157.219 125.382C156.816 122.862 157.014 121.577 157.718 119.393C170.97 134.638 177.471 143.318 185.418 159.322H47.9143C58.8791 139.971 66.1411 129.775 81.3547 112.905C83.3877 114.826 84.0139 116.053 84.5989 118.395C87.676 112.024 90.1147 108.934 94.8303 103.671C94.9063 106.515 94.9325 108.03 94.8303 110.659C102.568 99.059 107.099 93.027 115.294 82.9586Z" fill="#2DC9D6"/>
<path d="M115.294 82.9586C122.026 93.6608 126.036 99.2921 133.761 108.663C133.833 108.319 133.905 107.998 133.981 107.695L139.251 114.402L136.007 103.421L134.382 106.309C134.813 105.026 135.369 103.944 136.256 102.423C142.76 109.374 145.084 113.79 149.982 121.389V117.147C153.208 119.962 154.857 121.701 157.219 125.382C156.816 122.862 157.014 121.577 157.718 119.393C170.97 134.638 177.471 143.318 185.418 159.322H47.9143C58.8791 139.971 66.1411 129.775 81.3547 112.905C83.3877 114.826 84.0139 116.053 84.5989 118.395C87.676 112.024 90.1147 108.934 94.8303 103.671C94.9063 106.515 94.9325 108.03 94.8303 110.659C102.568 99.059 107.099 93.027 115.294 82.9586Z" fill="#2DC9D6"/>
<path d="M81.3545 112.905C66.1409 129.775 58.8791 139.971 47.9143 159.322H85.5969L94.8304 133.618C111.6 113.055 115.46 91.277 115.294 82.9586C107.098 93.027 102.568 99.0591 94.8304 110.659C94.9326 108.03 94.9063 106.515 94.8304 103.671C90.1147 108.934 87.6758 112.024 84.5987 118.395C84.0136 116.053 83.3875 114.826 81.3545 112.905Z" fill="white"/>
<g filter="url(#filter0_f_2002_2)">
<path d="M77.3616 134.616L81.3544 115.9L83.6004 120.391L77.3616 134.616Z" fill="#2DC9D6"/>
</g>
<g filter="url(#filter1_f_2002_2)">
<path d="M93.1178 134.019L110.087 125.285L112.084 112.308C113.602 117.342 118.835 130.021 127.917 141.807L129.054 143.252C128.668 142.772 128.289 142.291 127.917 141.807L114.33 124.536C115.578 127.115 111.235 137.762 83.8844 159.723L93.1178 134.019Z" fill="white"/>
</g>
<g filter="url(#filter2_f_2002_2)">
<path d="M94.3312 113.654L112.299 88.4487C112.299 88.4487 109.995 98.3149 106.31 103.422C102.71 108.411 94.3312 113.654 94.3312 113.654Z" fill="#2DC9D6"/>
</g>
<g filter="url(#filter3_f_2002_2)">
<path d="M136.007 103.422L133.761 107.415L139.251 114.402L136.007 103.422Z" fill="#FFA990"/>
</g>
<ellipse cx="115.543" cy="159.072" rx="68.6272" ry="3.74329" fill="url(#paint1_radial_2002_2)"/>
<path d="M218.176 125.436L116.575 234.294L14.9732 125.436L116.575 16.5775L218.176 125.436ZM18.9664 125.632L117.024 230.694L215.083 125.632L117.024 20.5706L18.9664 125.632Z" fill="#2DC9D6"/>
<path d="M116.917 231.692L184.42 159.072L115.294 161.318L50.1603 159.821L52.4062 163.559L116.917 231.692Z" fill="url(#paint2_radial_2002_2)"/>
<g filter="url(#filter4_f_2002_2)">
<path d="M112.299 162.816L91.8357 206.449L117.043 233.689L141.746 206.449L122.281 162.816H112.299Z" fill="url(#paint3_linear_2002_2)"/>
</g>
<path d="M118.011 26.9906L162.438 74.8246L153.66 82.9759L116.466 42.5023L79.6506 82.9759L70.8732 74.8246L115.265 27.0267L116.584 25.4544L116.655 25.5306L116.727 25.4544L118.011 26.9906Z" fill="white"/>
<path d="M39.9285 108.056L70.8732 74.8659L73.1192 76.6128L39.9285 108.056Z" fill="white"/>
<path d="M193.404 108.056L162.459 74.8659L160.213 76.6128L193.404 108.056Z" fill="white"/>
<g filter="url(#filter5_f_2002_2)">
<path d="M70.8732 79.1082L80.8554 67.8784L80.8554 99.8211L70.8732 79.1082Z" fill="#FFA990"/>
</g>
<g filter="url(#filter6_f_2002_2)">
<path d="M162.21 79.1082L152.228 67.8784L152.228 99.8211L162.21 79.1082Z" fill="#FFA990"/>
</g>
<g filter="url(#filter7_f_2002_2)">
<rect x="80.8553" y="67.8784" width="3.49375" height="31.4437" fill="white"/>
</g>
<g filter="url(#filter8_f_2002_2)">
<rect x="148.734" y="67.8784" width="3.49375" height="31.4437" fill="white"/>
</g>
<defs>
<filter id="filter0_f_2002_2" x="76.3616" y="114.9" width="8.23884" height="20.7165" filterUnits="userSpaceOnUse" color-interpolation-filters="sRGB">
<feFlood flood-opacity="0" result="BackgroundImageFix"/>
<feBlend mode="normal" in="SourceGraphic" in2="BackgroundImageFix" result="shape"/>
<feGaussianBlur stdDeviation="0.5" result="effect1_foregroundBlur_2002_2"/>
</filter>
<filter id="filter1_f_2002_2" x="81.8844" y="110.308" width="49.1692" height="51.4151" filterUnits="userSpaceOnUse" color-interpolation-filters="sRGB">
<feFlood flood-opacity="0" result="BackgroundImageFix"/>
<feBlend mode="normal" in="SourceGraphic" in2="BackgroundImageFix" result="shape"/>
<feGaussianBlur stdDeviation="1" result="effect1_foregroundBlur_2002_2"/>
</filter>
<filter id="filter2_f_2002_2" x="93.3312" y="87.4487" width="19.9678" height="27.2048" filterUnits="userSpaceOnUse" color-interpolation-filters="sRGB">
<feFlood flood-opacity="0" result="BackgroundImageFix"/>
<feBlend mode="normal" in="SourceGraphic" in2="BackgroundImageFix" result="shape"/>
<feGaussianBlur stdDeviation="0.5" result="effect1_foregroundBlur_2002_2"/>
</filter>
<filter id="filter3_f_2002_2" x="123.761" y="93.4219" width="25.4902" height="30.9803" filterUnits="userSpaceOnUse" color-interpolation-filters="sRGB">
<feFlood flood-opacity="0" result="BackgroundImageFix"/>
<feBlend mode="normal" in="SourceGraphic" in2="BackgroundImageFix" result="shape"/>
<feGaussianBlur stdDeviation="5" result="effect1_foregroundBlur_2002_2"/>
</filter>
<filter id="filter4_f_2002_2" x="83.8357" y="154.816" width="65.9107" height="86.873" filterUnits="userSpaceOnUse" color-interpolation-filters="sRGB">
<feFlood flood-opacity="0" result="BackgroundImageFix"/>
<feBlend mode="normal" in="SourceGraphic" in2="BackgroundImageFix" result="shape"/>
<feGaussianBlur stdDeviation="4" result="effect1_foregroundBlur_2002_2"/>
</filter>
<filter id="filter5_f_2002_2" x="69.8732" y="66.8784" width="11.9821" height="33.9428" filterUnits="userSpaceOnUse" color-interpolation-filters="sRGB">
<feFlood flood-opacity="0" result="BackgroundImageFix"/>
<feBlend mode="normal" in="SourceGraphic" in2="BackgroundImageFix" result="shape"/>
<feGaussianBlur stdDeviation="0.5" result="effect1_foregroundBlur_2002_2"/>
</filter>
<filter id="filter6_f_2002_2" x="151.228" y="66.8784" width="11.9821" height="33.9428" filterUnits="userSpaceOnUse" color-interpolation-filters="sRGB">
<feFlood flood-opacity="0" result="BackgroundImageFix"/>
<feBlend mode="normal" in="SourceGraphic" in2="BackgroundImageFix" result="shape"/>
<feGaussianBlur stdDeviation="0.5" result="effect1_foregroundBlur_2002_2"/>
</filter>
<filter id="filter7_f_2002_2" x="79.8553" y="66.8784" width="5.49375" height="33.4437" filterUnits="userSpaceOnUse" color-interpolation-filters="sRGB">
<feFlood flood-opacity="0" result="BackgroundImageFix"/>
<feBlend mode="normal" in="SourceGraphic" in2="BackgroundImageFix" result="shape"/>
<feGaussianBlur stdDeviation="0.5" result="effect1_foregroundBlur_2002_2"/>
</filter>
<filter id="filter8_f_2002_2" x="147.734" y="66.8784" width="5.49375" height="33.4437" filterUnits="userSpaceOnUse" color-interpolation-filters="sRGB">
<feFlood flood-opacity="0" result="BackgroundImageFix"/>
<feBlend mode="normal" in="SourceGraphic" in2="BackgroundImageFix" result="shape"/>
<feGaussianBlur stdDeviation="0.5" result="effect1_foregroundBlur_2002_2"/>
</filter>
<radialGradient id="paint0_radial_2002_2" cx="0" cy="0" r="1" gradientUnits="userSpaceOnUse" gradientTransform="translate(87.0236 65.0792) rotate(68.506) scale(162.973 152.109)">
<stop offset="0.202589" stop-color="#FFDB8F"/>
<stop offset="1" stop-color="#FF948F"/>
</radialGradient>
<radialGradient id="paint1_radial_2002_2" cx="0" cy="0" r="1" gradientUnits="userSpaceOnUse" gradientTransform="translate(115.543 159.072) scale(68.6272 3.74329)">
<stop stop-color="white"/>
<stop offset="0.926" stop-color="#2DC9D6"/>
</radialGradient>
<radialGradient id="paint2_radial_2002_2" cx="0" cy="0" r="1" gradientUnits="userSpaceOnUse" gradientTransform="translate(117.29 173.047) rotate(90) scale(58.6449 110.491)">
<stop stop-color="#9BF0F7"/>
<stop offset="0.425" stop-color="#2DC9D6"/>
</radialGradient>
<linearGradient id="paint3_linear_2002_2" x1="116.791" y1="162.816" x2="116.791" y2="233.689" gradientUnits="userSpaceOnUse">
<stop stop-color="white" stop-opacity="0"/>
<stop offset="0.121" stop-color="#C8ECEF"/>
<stop offset="0.621" stop-color="#2DC9D6"/>
</linearGradient>
</defs>
</svg>
